<svg width="40" height="40" viewBox="0 0 40 40" xmlns="http://www.w3.org/2000/svg">
<path fill-rule="evenodd" clip-rule="evenodd" d="M20 0C8.95667 0 0 8.95333 0 20C0 31.045 8.95667 40 20 40C31.045 40 40 31.045 40 20C40 8.95333 31.045 0 20 0ZM31.6667 19.4683C31.6667 14.2467 26.4333 10 20 10C13.5667 10 8.33333 14.2467 8.33333 19.4683C8.33333 24.1483 12.4833 28.0667 18.09 28.8083C18.47 28.89 18.9867 29.0583 19.1183 29.3833C19.2367 29.6783 19.195 30.14 19.155 30.4383L18.99 31.4367C18.9383 31.7317 18.755 32.59 20 32.0667C21.245 31.5417 26.7183 28.11 29.1667 25.2933C30.8567 23.4383 31.6667 21.5567 31.6667 19.4683ZM15.6567 22.4817H12.3883L12.23 22.4183L12.2283 22.4167L12.2233 22.4117L12.16 22.255V17.1717C12.16 17.0467 12.2617 16.945 12.3883 16.945H13.2067C13.3317 16.945 13.4333 17.0467 13.4333 17.1717V21.2083H15.6567C15.7817 21.21 15.8833 21.3117 15.8833 21.4367V22.255C15.8833 22.38 15.7817 22.4817 15.6567 22.4817ZM27.7817 22.4817H24.5117L24.355 22.4183L24.3483 22.4117L24.285 22.255V17.1717L24.3483 17.015L24.355 17.0083L24.5117 16.945H27.7817C27.9067 16.945 28.0083 17.0467 28.0083 17.1717V17.99C28.0083 18.1167 27.9067 18.2183 27.7817 18.2183H25.5583V19.0767H27.7817C27.9067 19.0767 28.0083 19.1783 28.0083 19.305V20.1233C28.0083 20.2483 27.9067 20.35 27.7817 20.35H25.5583V21.2083H27.7817C27.9067 21.21 28.0083 21.3117 28.0083 21.4367V22.255C28.0083 22.38 27.9067 22.4817 27.7817 22.4817ZM17.63 22.4817H16.8117C16.685 22.4817 16.5833 22.38 16.5833 22.255V17.1717C16.5833 17.0467 16.685 16.945 16.8117 16.945H17.63C17.755 16.945 17.8567 17.0467 17.8567 17.1717V22.255C17.8567 22.38 17.755 22.4817 17.63 22.4817ZM19.6983 22.4817H18.88C18.755 22.4817 18.6517 22.38 18.6517 22.255V17.1717C18.6517 17.0467 18.755 16.945 18.88 16.945H19.6983L19.7183 16.9467L19.74 16.9483L19.7517 16.9517L19.7733 16.9583L19.7817 16.96L19.8017 16.97L19.82 16.98L19.8317 16.9883L19.855 17.0067L19.87 17.0233L19.8867 17.045L22.2167 20.1917V17.1717C22.2167 17.0467 22.3183 16.945 22.4433 16.945H23.2617C23.3883 16.945 23.49 17.0467 23.49 17.1717V22.255C23.49 22.38 23.3883 22.4817 23.2617 22.4817H22.4433L22.385 22.475L22.3817 22.4733L22.36 22.4667L22.3483 22.4617L22.3317 22.4533L22.3183 22.4433L22.315 22.4417L22.2583 22.3867L19.925 19.2367V22.255C19.925 22.38 19.8233 22.4817 19.6983 22.4817Z" />
</svg>
