<svg width="29" height="26" viewBox="0 0 29 26" fill="none" xmlns="http://www.w3.org/2000/svg">
<path d="M25.65 14.5525V23H26.9V25.5H1.89999V23H3.15V14.5525C2.38046 14.0389 1.74964 13.3432 1.31352 12.5272C0.877403 11.7112 0.649484 10.8002 0.649995 9.875C0.649995 8.84125 0.929995 7.845 1.44124 6.99625L4.83124 1.125C4.94095 0.934981 5.09874 0.777186 5.28876 0.667476C5.47878 0.557766 5.69433 0.500006 5.91374 0.5H22.8875C23.1069 0.500006 23.3225 0.557766 23.5125 0.667476C23.7025 0.777186 23.8603 0.934981 23.97 1.125L27.3475 6.9775C28.0932 8.21609 28.3329 9.69442 28.0168 11.1052C27.7006 12.5159 26.853 13.7506 25.65 14.5525ZM23.15 15.465C22.2905 15.5614 21.4204 15.4582 20.6074 15.1633C19.7944 14.8685 19.0603 14.3899 18.4625 13.765C17.9378 14.3138 17.3072 14.7507 16.609 15.0491C15.9108 15.3475 15.1593 15.5013 14.4 15.5013C13.6409 15.5016 12.8895 15.3482 12.1913 15.0502C11.4931 14.7522 10.8624 14.3159 10.3375 13.7675C9.73953 14.3922 9.00546 14.8705 8.19244 15.1651C7.37941 15.4598 6.50935 15.5628 5.64999 15.4662V23H23.15V15.4662V15.465ZM6.63625 3L3.595 8.26625C3.29947 8.99643 3.2906 9.81128 3.57016 10.5477C3.84972 11.2842 4.39709 11.8879 5.10272 12.238C5.80835 12.5881 6.62018 12.6588 7.37572 12.436C8.13127 12.2132 8.77479 11.7133 9.1775 11.0363C9.59625 9.99 11.0775 9.99 11.4975 11.0363C11.7291 11.6168 12.1295 12.1145 12.6469 12.4651C13.1643 12.8158 13.775 13.0032 14.4 13.0032C15.025 13.0032 15.6357 12.8158 16.1531 12.4651C16.6705 12.1145 17.0709 11.6168 17.3025 11.0363C17.7212 9.99 19.2025 9.99 19.6225 11.0363C19.7847 11.4356 20.0278 11.797 20.3364 12.0978C20.6451 12.3987 21.0126 12.6324 21.4159 12.7844C21.8192 12.9364 22.2496 13.0032 22.6801 12.9809C23.1105 12.9585 23.5316 12.8473 23.917 12.6543C24.3024 12.4613 24.6437 12.1907 24.9194 11.8594C25.1952 11.5282 25.3994 11.1435 25.5193 10.7295C25.6392 10.3155 25.6722 9.88116 25.6162 9.45382C25.5602 9.02647 25.4163 8.61533 25.1937 8.24625L22.1625 3H6.6375H6.63625Z" fill="white"/>
</svg>
