<svg width="40" height="40" viewBox="0 0 40 40" fill="none" xmlns="http://www.w3.org/2000/svg">
<path d="M20 0C8.955 0 0 8.955 0 20C0 31.045 8.955 40 20 40C31.045 40 40 31.045 40 20C40 8.955 31.045 0 20 0ZM21.6667 26.7617V21.6667H26.6567C26.5583 23.5717 26.3033 25.4 25.8967 27.1317C24.525 26.9317 23.1067 26.8183 21.6667 26.7617ZM24.9283 30.365C24.0967 32.5817 22.9967 34.5267 21.6667 36.125V30.0917C22.7767 30.1383 23.865 30.2267 24.9283 30.365ZM21.6667 18.3333V13.3083C23.1133 13.2517 24.535 13.1367 25.9133 12.935C26.31 14.6467 26.5617 16.4533 26.6567 18.3333H21.6667ZM21.6667 9.97667V3.875C23.01 5.49 24.1183 7.45833 24.9517 9.70167C23.8817 9.84167 22.785 9.93 21.6667 9.97667ZM26.1717 4.53167C28.2333 5.35833 30.095 6.57833 31.655 8.10833C30.585 8.49833 29.47 8.845 28.29 9.12C27.7167 7.46667 26.9983 5.93667 26.1717 4.53167ZM14.1033 27.1317C13.6967 25.4 13.44 23.5717 13.3433 21.6667H18.3333V26.7617C16.8917 26.8183 15.4767 26.9317 14.1033 27.1317ZM18.3333 30.0917V36.125C17.0033 34.5267 15.9033 32.5817 15.0717 30.365C16.135 30.2267 17.2233 30.1383 18.3333 30.0917ZM13.3433 18.3333C13.4383 16.4533 13.6883 14.6467 14.0867 12.935C15.465 13.1367 16.8867 13.2517 18.3333 13.3083V18.3333H13.3433ZM15.05 9.70167C15.8833 7.45833 16.9917 5.49 18.3333 3.875V9.97667C17.215 9.93 16.1183 9.84167 15.05 9.70167ZM11.7083 9.11833C10.5283 8.84333 9.41333 8.49667 8.345 8.10667C9.90667 6.57667 11.7667 5.35667 13.8283 4.53C13.0017 5.93667 12.2833 7.46667 11.7083 9.11833ZM10.7933 12.315C10.3533 14.2333 10.07 16.2483 9.97333 18.3333H3.41833C3.69333 15.57 4.65 13.005 6.11333 10.8033C7.58 11.405 9.14 11.92 10.7933 12.315ZM10.8083 27.7517C9.16167 28.145 7.60833 28.655 6.14667 29.2517C4.66333 27.0383 3.695 24.4533 3.41833 21.6667H9.975C10.0717 23.775 10.36 25.8133 10.8083 27.7517ZM11.73 30.9467C12.3 32.5733 13.01 34.0817 13.825 35.4667C11.7867 34.65 9.94833 33.4483 8.39833 31.9417C9.45833 31.56 10.5633 31.2167 11.73 30.9467ZM28.27 30.9467C29.4367 31.2183 30.54 31.5583 31.6017 31.9417C30.05 33.4467 28.2117 34.65 26.1733 35.4683C26.9883 34.0817 27.6983 32.5733 28.27 30.9467ZM29.1917 27.7517C29.6417 25.8133 29.9283 23.775 30.0267 21.6667H36.5833C36.305 24.4533 35.3367 27.0383 33.8533 29.2517C32.3917 28.655 30.8367 28.145 29.1917 27.7517ZM30.0267 18.3333C29.93 16.2483 29.645 14.2333 29.2067 12.315C30.86 11.92 32.4217 11.405 33.8883 10.8033C35.35 13.005 36.3067 15.57 36.5817 18.3333H30.0267Z" fill="black"/>
</svg>
