<svg width="31" height="30" viewBox="0 0 31 30" fill="none" xmlns="http://www.w3.org/2000/svg">
<path d="M2.89999 4.99125C2.90228 4.66297 3.03362 4.34877 3.26564 4.11652C3.49765 3.88427 3.81172 3.75262 4.13999 3.75H26.66C27.345 3.75 27.9 4.30625 27.9 4.99125V25.0087C27.8977 25.337 27.7664 25.6512 27.5344 25.8835C27.3023 26.1157 26.9883 26.2474 26.66 26.25H4.13999C3.81101 26.2497 3.49561 26.1187 3.26311 25.886C3.0306 25.6533 2.89999 25.3377 2.89999 25.0087V4.99125ZM7.89999 18.75V21.25H22.9V18.75H7.89999ZM7.89999 8.75V16.25H15.4V8.75H7.89999ZM17.9 8.75V11.25H22.9V8.75H17.9ZM17.9 13.75V16.25H22.9V13.75H17.9ZM10.4 11.25H12.9V13.75H10.4V11.25Z" fill="white"/>
</svg>
