<svg width="26" height="24" viewBox="0 0 26 24" fill="none" xmlns="http://www.w3.org/2000/svg">
<path d="M0.899994 1.99125C0.902281 1.66297 1.03362 1.34877 1.26564 1.11652C1.49765 0.884272 1.81172 0.752618 2.13999 0.75H24.66C25.345 0.75 25.9 1.30625 25.9 1.99125V22.0088C25.8977 22.337 25.7664 22.6512 25.5344 22.8835C25.3023 23.1157 24.9883 23.2474 24.66 23.25H2.13999C1.81101 23.2497 1.49561 23.1187 1.26311 22.886C1.0306 22.6533 0.899994 22.3377 0.899994 22.0088V1.99125ZM5.89999 15.75V18.25H20.9V15.75H5.89999ZM5.89999 5.75V13.25H13.4V5.75H5.89999ZM15.9 5.75V8.25H20.9V5.75H15.9ZM15.9 10.75V13.25H20.9V10.75H15.9ZM8.39999 8.25H10.9V10.75H8.39999V8.25Z" fill="black"/>
</svg>
