<svg width="20" height="30" viewBox="0 0 20 30" fill="none" xmlns="http://www.w3.org/2000/svg">
<path d="M18.1413 8.89875C19.3388 7.47 20 5.6775 20 3.85375V0H0V3.85375C0 5.6775 0.66 7.46875 1.85875 8.8975L5.71625 13.4975C6.425 14.3438 6.43 15.5288 5.7275 16.38L1.815 21.1225C0.645 22.5425 0 24.3162 0 26.1162V30H20V26.1162C20 24.3162 19.3538 22.5438 18.1838 21.1238L14.2712 16.3812C13.5687 15.53 13.5737 14.345 14.2825 13.4987L18.1413 8.89875ZM12.3425 17.97L16.255 22.7125C17.07 23.7025 17.5 24.87 17.5 26.25H16.1737C15.1825 23.7288 10 20 10 20C10 20 4.81625 23.7288 3.825 26.25H2.5C2.5 24.87 2.92875 23.7013 3.745 22.7137L7.65625 17.9725C9.115 16.205 9.105 13.6488 7.6325 11.8925L3.775 7.29125C2.95 6.31 2.5 5.12125 2.5 3.74875H17.5C17.5 5.125 17.0462 6.31125 16.225 7.29125L12.3662 11.8912C10.895 13.6475 10.885 16.205 12.3425 17.97Z" fill="white"/>
</svg>
