<svg xmlns="http://www.w3.org/2000/svg" width="24" height="24" fill="none" viewBox="0 0 24 24">
  <path fill="#2B6474" d="M12.127 2.86c-5.14-.07-9.337 4.127-9.268 9.267.069 4.93 4.083 8.945 9.013 9.014 5.142.07 9.338-4.127 9.268-9.268-.068-4.93-4.082-8.945-9.013-9.014Zm5.556 14.38a.176.176 0 0 1-.27-.014 5.46 5.46 0 0 0-1.422-1.3c-1.118-.718-2.536-1.114-3.991-1.114s-2.873.396-3.992 1.114a5.458 5.458 0 0 0-1.421 1.3.177.177 0 0 1-.207.058.175.175 0 0 1-.063-.044 7.704 7.704 0 0 1-2.051-5.108c-.072-4.276 3.437-7.856 7.715-7.866A7.74 7.74 0 0 1 19.734 12a7.705 7.705 0 0 1-2.051 5.24Z"/>
  <path fill="#2B6474" d="M12 7.078c-.867 0-1.65.325-2.207.915-.557.59-.835 1.406-.772 2.282C9.148 12 10.485 13.406 12 13.406c1.515 0 2.849-1.406 2.979-3.13.065-.868-.21-1.676-.777-2.278-.559-.593-1.341-.92-2.202-.92Z"/>
</svg>
